{
    "asset" : {
        "generator" : "Khronos glTF Blender I/O v1.2.75",
        "version" : "2.0"
    },
    "scene" : 0,
    "scenes" : [
        {
            "name" : "Scene",
            "nodes" : [
                0,
                1
            ]
        }
    ],
    "nodes" : [
        {
            "mesh" : 0,
            "name" : "chopstick ramen",
            "scale" : [
                0.13680605590343475,
                0.13680605590343475,
                0.13680605590343475
            ],
            "translation" : [
                0,
                -1.0087060928344727,
                0
            ]
        },
        {
            "mesh" : 1,
            "name" : "Cube",
            "translation" : [
                0,
                0.10790908336639404,
                0
            ]
        }
    ],
    "animations" : [
        {
            "channels" : [
                {
                    "sampler" : 0,
                    "target" : {
                        "node" : 0,
                        "path" : "translation"
                    }
                }
            ],
            "name" : "chopstick ramenAction",
            "samplers" : [
                {
                    "input" : 10,
                    "interpolation" : "LINEAR",
                    "output" : 11
                }
            ]
        },
        {
            "channels" : [
                {
                    "sampler" : 0,
                    "target" : {
                        "node" : 0,
                        "path" : "weights"
                    }
                }
            ],
            "name" : "KeyAction",
            "samplers" : [
                {
                    "input" : 10,
                    "interpolation" : "LINEAR",
                    "output" : 12
                }
            ]
        }
    ],
    "meshes" : [
        {
            "extras" : {
                "targetNames" : [
                    "Key 1"
                ]
            },
            "name" : "Circle.001",
            "primitives" : [
                {
                    "attributes" : {
                        "POSITION" : 0,
                        "NORMAL" : 1,
                        "TEXCOORD_0" : 2
                    },
                    "indices" : 3,
                    "targets" : [
                        {
                            "POSITION" : 4,
                            "NORMAL" : 5
                        }
                    ]
                }
            ],
            "weights" : [
                1
            ]
        },
        {
            "name" : "Cube.005",
            "primitives" : [
                {
                    "attributes" : {
                        "POSITION" : 6,
                        "NORMAL" : 7,
                        "TEXCOORD_0" : 8
                    },
                    "indices" : 9
                }
            ]
        }
    ],
    "accessors" : [
        {
            "bufferView" : 0,
            "componentType" : 5126,
            "count" : 37120,
            "max" : [
                44.19131088256836,
                30.264972686767578,
                0.756202757358551
            ],
            "min" : [
                -0.9438878297805786,
                -0.21640945971012115,
                -2.842024803161621
            ],
            "type" : "VEC3"
        },
        {
            "bufferView" : 1,
            "componentType" : 5126,
            "count" : 37120,
            "type" : "VEC3"
        },
        {
            "bufferView" : 2,
            "componentType" : 5126,
            "count" : 37120,
            "type" : "VEC2"
        },
        {
            "bufferView" : 3,
            "componentType" : 5123,
            "count" : 200784,
            "type" : "SCALAR"
        },
        {
            "bufferView" : 4,
            "componentType" : 5126,
            "count" : 37120,
            "max" : [
                5.960464477539063e-08,
                10.331146240234375,
                1.1920928955078125e-07
            ],
            "min" : [
                -5.4263916015625,
                0,
                -1.1920928955078125e-07
            ],
            "type" : "VEC3"
        },
        {
            "bufferView" : 5,
            "componentType" : 5126,
            "count" : 37120,
            "type" : "VEC3"
        },
        {
            "bufferView" : 6,
            "componentType" : 5126,
            "count" : 29,
            "max" : [
                2.247499465942383,
                1.0022190809249878,
                2.247499465942383
            ],
            "min" : [
                -2.247499465942383,
                -1,
                -2.247499465942383
            ],
            "type" : "VEC3"
        },
        {
            "bufferView" : 7,
            "componentType" : 5126,
            "count" : 29,
            "type" : "VEC3"
        },
        {
            "bufferView" : 8,
            "componentType" : 5126,
            "count" : 29,
            "type" : "VEC2"
        },
        {
            "bufferView" : 9,
            "componentType" : 5123,
            "count" : 108,
            "type" : "SCALAR"
        },
        {
            "bufferView" : 10,
            "componentType" : 5126,
            "count" : 80,
            "max" : [
                3.3333333333333335
            ],
            "min" : [
                0.041666666666666664
            ],
            "type" : "SCALAR"
        },
        {
            "bufferView" : 11,
            "componentType" : 5126,
            "count" : 80,
            "type" : "VEC3"
        },
        {
            "bufferView" : 12,
            "componentType" : 5126,
            "count" : 80,
            "type" : "SCALAR"
        }
    ],
    "bufferViews" : [
        {
            "buffer" : 0,
            "byteLength" : 445440,
            "byteOffset" : 0
        },
        {
            "buffer" : 0,
            "byteLength" : 445440,
            "byteOffset" : 445440
        },
        {
            "buffer" : 0,
            "byteLength" : 296960,
            "byteOffset" : 890880
        },
        {
            "buffer" : 0,
            "byteLength" : 401568,
            "byteOffset" : 1187840
        },
        {
            "buffer" : 0,
            "byteLength" : 445440,
            "byteOffset" : 1589408
        },
        {
            "buffer" : 0,
            "byteLength" : 445440,
            "byteOffset" : 2034848
        },
        {
            "buffer" : 0,
            "byteLength" : 348,
            "byteOffset" : 2480288
        },
        {
            "buffer" : 0,
            "byteLength" : 348,
            "byteOffset" : 2480636
        },
        {
            "buffer" : 0,
            "byteLength" : 232,
            "byteOffset" : 2480984
        },
        {
            "buffer" : 0,
            "byteLength" : 216,
            "byteOffset" : 2481216
        },
        {
            "buffer" : 0,
            "byteLength" : 320,
            "byteOffset" : 2481432
        },
        {
            "buffer" : 0,
            "byteLength" : 960,
            "byteOffset" : 2481752
        },
        {
            "buffer" : 0,
            "byteLength" : 320,
            "byteOffset" : 2482712
        }
    ],
    "buffers" : [
        {
            "byteLength" : 2483032,
            "uri" : "data:application/octet-stream;base64,"
        }
    ]
}
